# xmcd CD database file
#
# Track frame offsets:
#	150
#	25493
#	51612
#	76712
#	104043
#	132881
#	159137
#	188537
#	211956
#	236912
#	264860
#
# Disc length: 3881 seconds
#
# Revision: 0
# Processed by: cddbd v1.5.2PL0 Copyright (c) Steve Scherf et al.
# Submitted via: CDex 1.51
#
DISCID=8f0f270b
DTITLE=Leo Gandelman - Sabe Você
DYEAR=2008
DGENRE=Jazz
TTITLE0=Aos Pés da Cruz | com Luiz Melodia
TTITLE1=Sensível | com Joel Nascimento
TTITLE2=Pra Machucar Meu Coração | com Ney Matogrosso
TTITLE3=Futuros Amantes | com Chico Buarque
TTITLE4=Chove Là Fora | com Caetano Veloso
TTITLE5=Coração Vagabundo | com Leila Pinheiro
TTITLE6=Por Causa de Você | com Milton Nascimento
TTITLE7=Amargura
TTITLE8=Sabe Você? | com Leny Andrade
TTITLE9=Só por Amor | com Lirinha
TTITLE10=Chuva
EXTD=YEAR: 2008
EXTT0=
EXTT1=
EXTT2=
EXTT3=
EXTT4=
EXTT5=
EXTT6=
EXTT7=
EXTT8=
EXTT9=
EXTT10=
PLAYORDER=
